<svg width="100" height="100" viewBox="0 0 100 100" fill="none" xmlns="http://www.w3.org/2000/svg">
<path fill-rule="evenodd" clip-rule="evenodd" d="M24.5503 40.359C24.061 43.5613 23.8164 46.9981 23.8164 50.6693C23.8164 53.9508 24.0153 57.0387 24.4131 59.9328C26.0573 60.1287 27.6272 60.4852 29.1144 61.0138C31.6023 61.8857 33.7705 63.2359 35.5666 65.0748C37.3639 66.9149 38.6876 69.1585 39.5764 71.7331C40.5146 74.315 40.9445 77.2342 40.9445 80.431C40.9445 82.6545 40.7451 84.7563 40.3262 86.7195C40.3651 86.7429 40.404 86.7662 40.4431 86.7893C45.7942 89.8471 52.1009 91.376 59.3631 91.376C67.2369 91.376 74.0786 89.656 79.8884 86.216C85.6982 82.6996 90.2084 77.7307 93.4191 71.3093C96.7062 64.8116 98.3497 57.0907 98.3497 48.1467C98.3497 41.5725 97.4706 35.8009 95.7124 30.832C93.9542 25.7867 91.4697 21.5822 88.2591 18.2187C85.1249 14.8551 81.3026 12.2942 76.7924 10.536C72.3586 8.77779 67.3515 7.89868 61.7711 7.89868C56.1142 7.89868 50.9542 8.81601 46.2911 10.6507C41.7044 12.4089 37.7293 15.0845 34.3657 18.6773C32.1227 21.0223 30.2196 23.7753 28.6565 26.9362V30.1579L33.0765 31.283V40.359H28.6565H26.3985H24.5503ZM25.0946 37.359C25.4398 35.7269 25.855 34.1619 26.34 32.6639L30.0765 33.615V37.359H25.0946ZM37.616 84.8845C37.835 83.4968 37.9445 82.0123 37.9445 80.431C37.9445 77.4843 37.5458 74.919 36.7485 72.735C35.9858 70.5163 34.8765 68.6617 33.4205 67.171C31.9645 65.6803 30.1965 64.571 28.1165 63.843C27.1128 63.4857 26.0507 63.2161 24.9301 63.0342C25.4439 65.6364 26.1355 68.0655 27.0049 70.3215C27.0289 70.3458 27.0527 70.3703 27.0765 70.395C27.9431 71.2617 28.6365 72.5443 29.1565 74.243C29.2792 74.6358 29.3875 75.0586 29.4813 75.5114C31.6583 79.291 34.3698 82.4154 37.616 84.8845ZM70.8297 76.0107C67.8484 77.8453 64.4466 78.7627 60.6244 78.7627C56.6493 78.7627 53.2093 77.8071 50.3044 75.896C47.476 73.9085 45.2973 70.8507 43.7684 66.7227C42.2395 62.5182 41.4751 56.976 41.4751 50.096C41.4751 42.6045 42.2777 36.7182 43.8831 32.4373C45.5649 28.1565 47.8964 25.0987 50.8777 23.264C53.8591 21.4293 57.2609 20.512 61.0831 20.512C65.0582 20.512 68.4982 21.4293 71.4031 23.264C74.308 25.0987 76.5631 28.1182 78.1684 32.3227C79.8502 36.4507 80.6911 41.9547 80.6911 48.8347C80.6911 56.2498 79.7737 62.1742 77.9391 66.608C76.1809 70.9653 73.8111 74.0996 70.8297 76.0107Z" fill="#2A3E49"/>
<path d="M13.7481 37.359V33.615L19.5201 32.159L18.1681 34.031V4.96298L19.6761 6.10698H11.2001L12.8641 4.65098L11.4601 11.255H7.04007V0.750977H36.7841V11.255H32.3641L31.0641 4.96298L32.6241 6.10698H24.1481L25.6561 4.96298V34.031L24.3561 32.159L30.0761 33.615V37.359H13.7481Z" fill="#2A3E49"/>
<path d="M21.2521 62.751C23.7827 62.751 26.0707 63.115 28.1161 63.843C30.1961 64.571 31.9641 65.6803 33.4201 67.171C34.8761 68.6616 35.9854 70.5163 36.7481 72.735C37.5454 74.919 37.9441 77.4843 37.9441 80.431C37.9441 84.5563 37.1987 88.023 35.7081 90.831C34.2521 93.639 32.1894 95.771 29.5201 97.227C26.8854 98.6483 23.7654 99.359 20.1601 99.359H4.87207V95.615L9.70807 94.211L8.72007 95.719V66.599L9.81207 68.107L4.87207 66.755V63.011L16.6761 62.751H21.2521ZM20.5241 94.003C21.6334 94.003 22.7427 93.847 23.8521 93.535C24.9614 93.1883 25.9667 92.5643 26.8681 91.663C27.8041 90.7616 28.5494 89.4443 29.1041 87.711C29.6587 85.9776 29.9361 83.6896 29.9361 80.847C29.9361 78.1083 29.6761 75.907 29.1561 74.243C28.6361 72.5443 27.9427 71.2616 27.0761 70.395C26.2094 69.4936 25.2387 68.887 24.1641 68.575C23.1241 68.263 22.0841 68.107 21.0441 68.107H15.0121L16.1561 66.963V95.147L15.0121 94.003H20.5241Z" fill="#2A3E49"/>
</svg>
