<svg width="30" height="28" viewBox="0 0 30 28" fill="none" xmlns="http://www.w3.org/2000/svg">
<path d="M22.5868 8.55556H19.7674V6.85417C19.7674 6.10343 19.1352 5.49306 18.3576 5.49306H11.309C10.5315 5.49306 9.89931 6.10343 9.89931 6.85417V8.55556H7.07986C6.68998 8.55556 6.375 8.85968 6.375 9.23611V9.91667C6.375 10.0102 6.4543 10.0868 6.55122 10.0868H7.88164L8.42571 21.2096C8.46095 21.9349 9.08211 22.5069 9.83323 22.5069H19.8334C20.5868 22.5069 21.2057 21.937 21.241 21.2096L21.785 10.0868H23.1155C23.2124 10.0868 23.2917 10.0102 23.2917 9.91667V9.23611C23.2917 8.85968 22.9767 8.55556 22.5868 8.55556ZM18.1814 8.55556H11.4852V7.02431H18.1814V8.55556Z" fill="white"/>
</svg>
