<svg width="11" height="36" viewBox="0 0 11 36" fill="none" xmlns="http://www.w3.org/2000/svg">
<path d="M2.5 13.5C3.32843 13.5 4 12.8284 4 12C4 11.1716 3.32843 10.5 2.5 10.5C1.67157 10.5 1 11.1716 1 12C1 12.8284 1.67157 13.5 2.5 13.5Z" fill="white"/>
<path d="M2.5 25.5C3.32843 25.5 4 24.8284 4 24C4 23.1716 3.32843 22.5 2.5 22.5C1.67157 22.5 1 23.1716 1 24C1 24.8284 1.67157 25.5 2.5 25.5Z" fill="white"/>
<path d="M8.5 13.5C9.32843 13.5 10 12.8284 10 12C10 11.1716 9.32843 10.5 8.5 10.5C7.67157 10.5 7 11.1716 7 12C7 12.8284 7.67157 13.5 8.5 13.5Z" fill="white"/>
<path d="M8.5 25.5C9.32843 25.5 10 24.8284 10 24C10 23.1716 9.32843 22.5 8.5 22.5C7.67157 22.5 7 23.1716 7 24C7 24.8284 7.67157 25.5 8.5 25.5Z" fill="white"/>
<path d="M8.5 19.5C9.32843 19.5 10 18.8284 10 18C10 17.1716 9.32843 16.5 8.5 16.5C7.67157 16.5 7 17.1716 7 18C7 18.8284 7.67157 19.5 8.5 19.5Z" fill="white"/>
<path d="M2.5 19.5C3.32843 19.5 4 18.8284 4 18C4 17.1716 3.32843 16.5 2.5 16.5C1.67157 16.5 1 17.1716 1 18C1 18.8284 1.67157 19.5 2.5 19.5Z" fill="white"/>
</svg>
