<svg width="29" height="28" viewBox="0 0 29 28" fill="none" xmlns="http://www.w3.org/2000/svg">
<path d="M7.00789 16.7673L6.0227 21.0191C5.98872 21.1746 5.98988 21.3356 6.02611 21.4905C6.06234 21.6455 6.13272 21.7903 6.23211 21.9146C6.3315 22.0388 6.45739 22.1393 6.60058 22.2086C6.74377 22.278 6.90064 22.3145 7.05974 22.3154C7.13387 22.3229 7.20857 22.3229 7.2827 22.3154L11.5605 21.3302L19.7738 13.148L15.1901 8.57465L7.00789 16.7673Z" fill="white"/>
<path d="M22.3561 9.0517L19.2969 5.99245C19.0957 5.79233 18.8235 5.67999 18.5398 5.67999C18.2561 5.67999 17.9839 5.79233 17.7828 5.99245L16.082 7.69318L20.6606 12.2717L22.3613 10.571C22.4608 10.4709 22.5397 10.3522 22.5933 10.2217C22.6469 10.0912 22.6742 9.95137 22.6738 9.81025C22.6733 9.66914 22.645 9.52951 22.5905 9.39935C22.536 9.26919 22.4563 9.15105 22.3561 9.0517V9.0517Z" fill="white"/>
</svg>
