<svg width="28" height="28" viewBox="0 0 29 28" fill="none" xmlns="http://www.w3.org/2000/svg">
<path fill-rule="evenodd" clip-rule="evenodd" d="M14.333 24C19.8559 24 24.333 19.5228 24.333 14C24.333 8.47715 19.8559 4 14.333 4C8.81016 4 4.33301 8.47715 4.33301 14C4.33301 19.5228 8.81016 24 14.333 24ZM19.8813 11.5653C20.1639 11.2625 20.1476 10.7879 19.8447 10.5052C19.5419 10.2226 19.0673 10.239 18.7847 10.5418L12.6477 17.1171L9.86334 14.3327C9.57044 14.0398 9.09557 14.0398 8.80268 14.3327C8.50978 14.6256 8.50978 15.1005 8.80268 15.3934L12.136 18.7267C12.2798 18.8705 12.4759 18.9498 12.6793 18.9463C12.8826 18.9428 13.0759 18.8568 13.2146 18.7081L19.8813 11.5653Z" fill="white"/>
</svg>
