<svg width="104" height="137" viewBox="0 0 104 137" fill="none" xmlns="http://www.w3.org/2000/svg">
<path d="M57.4906 108.376C50.2284 108.376 43.9217 106.847 38.5706 103.789C33.2959 100.655 29.2062 96.0684 26.3013 90.0293C23.3964 83.9902 21.9439 76.5369 21.9439 67.6693C21.9439 60.56 22.8613 54.3298 24.6959 48.9787C26.5306 43.6276 29.1297 39.1938 32.4933 35.6773C35.8568 32.0844 39.8319 29.4089 44.4186 27.6507C49.0817 25.816 54.2417 24.8987 59.8986 24.8987C65.479 24.8987 70.4862 25.7778 74.9199 27.536C79.4302 29.2942 83.2524 31.8551 86.3866 35.2187C89.5973 38.5822 92.0817 42.7867 93.8399 47.832C95.5982 52.8009 96.4773 58.5724 96.4773 65.1467C96.4773 74.0907 94.8337 81.8116 91.5466 88.3093C88.3359 94.7307 83.8257 99.6996 78.0159 103.216C72.2062 106.656 65.3644 108.376 57.4906 108.376ZM58.7519 95.7627C62.5742 95.7627 65.9759 94.8453 68.9573 93.0107C71.9386 91.0996 74.3084 87.9653 76.0666 83.608C77.9013 79.1742 78.8186 73.2498 78.8186 65.8347C78.8186 58.9547 77.9777 53.4507 76.2959 49.3227C74.6906 45.1182 72.4355 42.0987 69.5306 40.264C66.6257 38.4293 63.1857 37.512 59.2106 37.512C55.3884 37.512 51.9866 38.4293 49.0053 40.264C46.0239 42.0987 43.6924 45.1564 42.0106 49.4373C40.4053 53.7182 39.6026 59.6044 39.6026 67.096C39.6026 73.976 40.367 79.5182 41.8959 83.7227C43.4248 87.8507 45.6035 90.9084 48.4319 92.896C51.3368 94.8071 54.7768 95.7627 58.7519 95.7627Z" fill="white"/>
<path fill-rule="evenodd" clip-rule="evenodd" d="M8.876 57.359V48.2778L13.296 47.1628V26.107H13.1117L12.0173 31.255H2.168V26.107H1.34365L2.168 25.3857V14.751H14.3219L15.8011 13.4567L15.526 14.751H37.912V24.6374L39.9159 26.107H37.912V31.255H28.0485L26.9848 26.107H26.784V47.1579L31.204 48.2829V57.359H26.784H24.526H15.4264L13.296 60.3087V57.359H8.876ZM28.204 54.359V50.615L23.784 49.4899V23.107H29.4284L30.492 28.255H34.912V17.751H5.168V28.255H9.588L10.6825 23.107H16.296V49.5L11.876 50.615V54.359H28.204ZM18.652 111.003C19.7613 111.003 20.8707 110.847 21.98 110.535C23.0893 110.188 24.0947 109.564 24.996 108.663C25.932 107.762 26.6773 106.444 27.232 104.711C27.7867 102.978 28.064 100.69 28.064 97.847C28.064 95.1083 27.804 92.907 27.284 91.243C26.764 89.5443 26.0707 88.2616 25.204 87.395C24.3373 86.4936 23.3667 85.887 22.292 85.575C21.252 85.263 20.212 85.107 19.172 85.107H14.284V111.003H18.652ZM19.38 79.751C21.9107 79.751 24.1987 80.115 26.244 80.843C28.324 81.571 30.092 82.6803 31.548 84.171C33.004 85.6616 34.1133 87.5163 34.876 89.735C35.6733 91.919 36.072 94.4843 36.072 97.431C36.072 101.556 35.3267 105.023 33.836 107.831C32.38 110.639 30.3173 112.771 27.648 114.227C25.0133 115.648 21.8933 116.359 18.288 116.359H3V112.615L6.848 111.498V84.8081L3 83.755V80.011L14.804 79.751H19.38ZM17.284 76.751H19.38C22.1947 76.751 24.8273 77.1555 27.2419 78.0138C29.7298 78.8856 31.898 80.2359 33.6941 82.0748C35.4914 83.9149 36.8151 86.1585 37.7039 88.7331C38.6421 91.315 39.072 94.2342 39.072 97.431C39.072 101.899 38.2668 105.876 36.4927 109.225C34.7737 112.534 32.2963 115.109 29.0846 116.861L29.0724 116.867C25.919 118.568 22.2896 119.359 18.288 119.359H17.284V119.39L17.2534 119.359H6.0842L3.848 122.772V119.359H0V110.362L3.848 109.245V87.0974L0 86.0442V77.0763L3.848 76.9916V74.3411L5.73717 76.95L14.771 76.751H17.2534L17.284 76.7203V76.751ZM17.284 108.003H18.652C19.4618 108.003 20.2833 107.892 21.123 107.66C21.7129 107.468 22.2947 107.122 22.8747 106.542L22.8947 106.522L22.9151 106.502C23.3784 106.056 23.9142 105.236 24.3747 103.797C24.7972 102.476 25.064 100.533 25.064 97.847C25.064 95.2595 24.8137 93.3959 24.4206 92.1378L24.418 92.1295L24.4154 92.1211C23.9789 90.6952 23.4814 89.915 23.0827 89.5163L23.0619 89.4955L23.0415 89.4743C22.4953 88.9063 21.9683 88.6049 21.4556 88.456L21.4427 88.4523L21.43 88.4484C20.6572 88.2166 19.9074 88.107 19.172 88.107H17.284V108.003Z" fill="#2A3E49"/>
</svg>
